#!OML:ASF E:/inclinewalkrobotboard/Project1/Captureday1/Session1/subject1.ASF
:FULLY-SPECIFIED
:DEGREES
63
root 0 0 0 -1.743368852972719 -5.367485792273142 -7.353602600368042
lowerback 10.102807179721689 2.463736778498345 5.67987575024249
upperback 0.058303504822715346 4.021549006906348 1.4623710419217724
thorax -5.5255152085073815 1.8526041097991413 -2.2303161325114713
lowerneck -14.80718852433689 -3.3402143029875453 -0.9676901785033772
upperneck 17.431309502453296 -4.586974101547553 1.335082277855932
head 8.019721138111414 -2.1387241113802773 0.09391102401258922
rclavicle -1.4018257483764042E-16 -5.1120539596330563E-17
rhumerus -18.96428384357592 -6.566599656787993 -66.66862512604342
rradius 62.82400779472764
rwrist -8.932078645184404
rhand -13.062583180789826 -10.999087411461012
rfingers 7.125019999999852
rthumb 13.0614241453553 -40.20047957967841
lclavicle -8.426170457351145E-16 -3.818125085208893E-16
lhumerus -40.02833797887559 0.27912678672897806 83.32100124383236
lradius 38.80413769679505
lwrist 2.5317419205276983
lhand -19.02122836628066 -0.4061416152735813
lfingers 7.1250199999998705
lthumb 7.179601980019639 29.073959611446572
rfemur -4.330646051182905 3.821595436621686 18.029644639813633
rtibia 22.145577760243643
rfoot -6.540141321900666 -3.401968370896169
rtoes 1.696380263177681
lfemur -16.525139565585086 -1.6203334559010492 -12.630190703514224
ltibia 38.044368291339225
lfoot -8.439371166271169 0.7361131787664759
ltoes -19.700311403272988
64
root 0 0 0 -1.713870153873538 -5.343071429247799 -7.333029351338421
lowerback 10.093910965398907 2.467892982888328 5.628984335402813
upperback 0.04498316879810976 4.022073558968479 1.4395850782376387
thorax -5.534090737213674 1.851546037932836 -2.225875587013957
lowerneck -14.688537602238215 -3.3329693648377514 -0.9355615032581215
upperneck 17.295352951619346 -4.5876519242769955 1.3650116194046666
head 7.966586124237389 -2.1360684738672533 0.1027089209444465
rclavicle -1.457579601434835E-16 -4.6502533932407645E-17
rhumerus -19.020351063173493 -6.6090458386809985 -66.72066606871458
rradius 62.67651123867025
rwrist -8.874398498641332
rhand -13.079884229300092 -10.874883721398549
rfingers 7.125019999999853
rthumb 13.045611098496511 -40.07723306793939
lclavicle -8.670062195983302E-16 -3.959739439009419E-16
lhumerus -40.345450084762895 0.3090549971482209 83.35169588651506
lradius 39.20687202672712
lwrist 2.388729888597098
lhand -18.693285335411275 -1.4041525394436807
lfingers 7.125019999999863
lthumb 7.4894841685299225 28.06383771676651
rfemur -4.5327873746670715 2.92130379719854 15.888418026719382
rtibia 23.9721094247272
rfoot -3.6819606744641034 -2.652319970391401
rtoes 2.83907709168758
lfemur -15.07043102677676 -1.963276273682551 -12.963738091088956
ltibia 35.816850598188836
lfoot -9.89746177948407 1.6612005030567545
ltoes -21.471103082103703
65
root 0 0 0 -1.704614760850856 -5.320228439014221 -7.301004798154109
lowerback 10.092056736747304 2.461191754828486 5.585235123595155
upperback 0.040420560213507595 4.008478155047294 1.4300362641117768
thorax -5.537440281214452 1.8449113486278375 -2.209746245623964
lowerneck -14.644874598243312 -3.3289765751399725 -0.9263044948381297
upperneck 17.243164447799106 -4.585620727892838 1.3760593653866708
head 7.9473829144173855 -2.1340812808332936 0.10676111137519645
rclavicle -1.529508474037996E-16 -5.0424898466531235E-17
rhumerus -19.163729978735073 -6.754418938613319 -66.87136983388515
rradius 62.22117908350413
rwrist -8.70642103029133
rhand -13.138290704770236 -10.459100599475038
rfingers 7.1250199999998545
rthumb 12.988775757443989 -39.6701832107274
lclavicle -8.757483176229421E-16 -4.0585747082029683E-16
lhumerus -40.45723844753721 0.3219876752848879 83.3631058245584
lradius 39.3436563978747
lwrist 2.3371752838091666
lhand -18.578918275745878 -1.753692766156064
lfingers 7.125019999999862
lthumb 7.598159555262921 27.712982298788056
rfemur -5.265932304411654 2.4852225595485695 15.14019900935222
rtibia 25.828168732581652
rfoot -2.2342800368746802 -2.4577320779984078
rtoes 3.5378339238823204
lfemur -14.266313987256861 -2.107816213153132 -13.245381073384845
ltibia 34.82112941457917
lfoot -10.496545982139232 1.9703799437911798
ltoes -21.984122031304885
66
root 0 0 0 -1.695129902876821 -5.29752601847105 -7.269879741442954
lowerback 10.090097736215935 2.4549870515627923 5.542479148684
upperback 0.035627163108782 3.995702338929923 1.4203467213568768
thorax -5.5414155754156 1.8387237950850808 -2.1944957844153716
lowerneck -14.601291123190636 -3.3252895811522354 -0.9169199946105415
upperneck 17.188623038959015 -4.584071887768868 1.3877409704165593
head 7.927568669267507 -2.132348319590015 0.11095232404223282
rclavicle -1.6028473628851741E-16 -5.62088812521498E-17
rhumerus -19.291435705020657 -6.888183041689671 -67.00965917547816
rradius 61.799877634630164
rwrist -8.553828014833282
rhand -13.193062559199053 -10.072275386588375
rfingers 7.125019999999857
rthumb 12.935616862145395 -39.29027568626486
lclavicle -8.775080322589907E-16 -4.0973614091813715E-16
lhumerus -40.49891282617356 0.32465016840582184 83.36769863680335
lradius 39.398646813234315
lwrist 2.318278500217021
lhand -18.534972884197536 -1.889075728313836
lfingers 7.12501999999986
lthumb 7.640221163757513 27.57785622455925
rfemur -5.929589427524083 2.3168264526700835 14.948439487227308
rtibia 26.916852333850997
rfoot -1.6796707538632647 -2.492007961226646
rtoes 3.829270814942465
lfemur -13.505178277603052 -2.235171654016785 -13.532836824962372
ltibia 33.92721049041522
lfoot -11.021993030399832 2.2214019775915013
ltoes -22.37081572595112
